# xmcd CD database file
#
# Track frame offsets:
#	150
#	52613
#	105939
#	155796
#	203736
#	271126
#
# Disc length: 4360 seconds
#
# Revision: 0
# Processed by: cddbd v1.4PL0 Copyright (c) Steve Scherf et al.
# Submitted via: CDex 1.50beta8
#
DISCID=41110606
DTITLE=Klaus Ignatzek Quintett - Live
DYEAR=1996
DGENRE=Jazz
TTITLE0=Quasi-Modal
TTITLE1=The waltz for Jean-Louis
TTITLE2=Return voyage
TTITLE3=Nails
TTITLE4=A ballad for Booker
TTITLE5=Autumn leaves
EXTD=YEAR: 1996
EXTT0=
EXTT1=
EXTT2=
EXTT3=
EXTT4=
EXTT5=
PLAYORDER=
